<?xml version="1.0" encoding="utf-8"?>
<!-- Generator: Adobe Illustrator 26.3.1, SVG Export Plug-In . SVG Version: 6.00 Build 0)  -->
<svg version="1.1" id="Ebene_1" xmlns="http://www.w3.org/2000/svg" xmlns:xlink="http://www.w3.org/1999/xlink" x="0px" y="0px"
	 viewBox="0 0 500 500" style="enable-background:new 0 0 500 500;" xml:space="preserve">
<style type="text/css">
	.st0{fill:#4E4AED;}
</style>
<g>
	<g>
		<g>
			<polygon class="st0" points="224.5,325.24 250.3,299.94 276.1,325.24 250.3,499.91 			"/>
		</g>
		<g>
			<polygon class="st0" points="197.66,309.63 231.17,296.14 245.33,329.38 154.65,480.88 			"/>
		</g>
		<g>
			<polygon class="st0" points="178.83,284.94 214.95,285.3 215.31,321.43 73.56,426.7 			"/>
		</g>
		<g>
			<polygon class="st0" points="170.88,254.93 204.12,269.08 190.62,302.6 19.38,345.61 			"/>
		</g>
		<g>
			<polygon class="st0" points="175.02,224.16 200.31,249.95 175.02,275.75 0.35,249.95 			"/>
		</g>
		<g>
			<polygon class="st0" points="190.62,197.31 204.12,230.82 170.88,244.98 19.38,154.3 			"/>
		</g>
		<g>
			<polygon class="st0" points="215.31,178.48 214.95,214.6 178.83,214.96 73.56,73.21 			"/>
		</g>
		<g>
			<polygon class="st0" points="245.33,170.53 231.17,203.77 197.66,190.27 154.65,19.03 			"/>
		</g>
		<g>
			<polygon class="st0" points="276.1,174.67 250.3,199.96 224.5,174.67 250.3,0 			"/>
		</g>
		<g>
			<polygon class="st0" points="302.95,190.27 269.43,203.77 255.28,170.53 345.96,19.03 			"/>
		</g>
		<g>
			<polygon class="st0" points="321.78,214.96 285.65,214.6 285.29,178.48 427.05,73.21 			"/>
		</g>
		<g>
			<polygon class="st0" points="329.73,244.98 296.49,230.82 309.98,197.31 481.23,154.3 			"/>
		</g>
		<g>
			<polygon class="st0" points="325.59,275.75 300.29,249.95 325.59,224.16 500.26,249.95 			"/>
		</g>
		<g>
			<polygon class="st0" points="309.98,302.6 296.49,269.08 329.73,254.93 481.23,345.61 			"/>
		</g>
		<g>
			<polygon class="st0" points="285.29,321.43 285.65,285.3 321.78,284.94 427.05,426.7 			"/>
		</g>
		<g>
			<polygon class="st0" points="255.28,329.38 269.43,296.14 302.95,309.63 345.96,480.88 			"/>
		</g>
	</g>
	<circle class="st0" cx="250.3" cy="249.95" r="88.61"/>
</g>
</svg>
