<?xml version="1.0" encoding="utf-8"?>
<!-- Generator: Adobe Illustrator 26.3.1, SVG Export Plug-In . SVG Version: 6.00 Build 0)  -->
<svg version="1.1" id="Ebene_1" xmlns="http://www.w3.org/2000/svg" xmlns:xlink="http://www.w3.org/1999/xlink" x="0px" y="0px"
	 viewBox="0 0 500 500" style="enable-background:new 0 0 500 500;" xml:space="preserve">
<style type="text/css">
	.st0{fill:#4E4AED;}
</style>
<g>
	<path class="st0" d="M187.35,198.58l3.01-5.25l-3.01-5.25c-1.18-2.05-29.24-50.23-66.59-50.23c-33.8,0-99.03,41.85-106.36,46.62
		l-13.57,8.84l13.57,8.84c7.33,4.77,72.57,46.62,106.36,46.62C158.11,248.77,186.17,200.63,187.35,198.58z M120.76,227.68
		c-18.81,0-56.85-20.22-80.59-34.37c23.74-14.15,61.77-34.36,80.59-34.36c18.07,0,36.31,21.47,44.99,34.38
		C157.06,206.23,138.83,227.68,120.76,227.68z"/>
	
		<ellipse transform="matrix(0.7071 -0.7071 0.7071 0.7071 -102.1937 139.915)" class="st0" cx="117.8" cy="193.32" rx="20.73" ry="20.73"/>
	<path class="st0" d="M133.72,90.23c56.74,0,82.23,54.46,82.23,68.52v180.14c-10.62-0.53-36.98,2.36-41.41-8.02
		c-0.67-2.14-1.37-5.62-1.09-8.09c0.67-5.48,4.25-14.84,5.91-20.46c-12.8,7.98-22.85,23.31-15.57,38.57
		c10.12,17.09,34.63,18.14,52.17,19.09h68.69c17.58-0.95,42.05-2,52.17-19.12c7.28-15.22-2.78-30.55-15.57-38.53
		c1.65,5.59,5.27,15.01,5.91,20.46c0.32,2.46-0.42,5.94-1.09,8.09c-4.39,10.37-30.83,7.49-41.41,8.02V158.75
		c0-14.06,25.52-68.52,82.23-68.52c53.61,0,73.16,33.22,73.97,34.66l18.46-10.27c-1.02-1.86-25.84-45.49-92.42-45.49
		c-67.11,0-103.32,63.6-103.32,89.61v180.14h-26.51V158.75c0-26.01-36.21-89.61-103.32-89.61c-66.58,0-91.4,43.63-92.42,45.49
		l18.46,10.27C60.57,123.45,80.11,90.23,133.72,90.23z"/>
	<path class="st0" d="M486.21,184.48c-7.33-4.77-72.57-46.62-106.36-46.62c-37.36,0-65.42,48.17-66.59,50.23l-3.01,5.25l3.01,5.25
		c1.18,2.05,29.24,50.19,66.59,50.19c33.8,0,99.03-41.85,106.36-46.62l13.57-8.84L486.21,184.48z M379.85,227.68
		c-18.07,0-36.3-21.45-44.99-34.35c8.69-12.91,26.92-34.38,44.99-34.38c18.81,0,56.84,20.21,80.59,34.36
		C436.69,207.47,398.65,227.68,379.85,227.68z"/>
	
		<ellipse transform="matrix(0.7071 -0.7071 0.7071 0.7071 -24.573 327.3079)" class="st0" cx="382.81" cy="193.32" rx="20.73" ry="20.73"/>
	<path class="st0" d="M148.6,391.48c0,0,13.25,7.77,41.03,22.6c22.65,12.11,28.87,16.68,60.68,16.68c30.48,0,38.03-4.57,60.68-16.68
		c27.77-14.84,41.03-22.6,41.03-22.6s-45.85,6.65-101.7,6.78C194.45,398.13,148.6,391.48,148.6,391.48z"/>
</g>
</svg>
