<?xml version="1.0" encoding="utf-8"?>
<!-- Generator: Adobe Illustrator 26.3.1, SVG Export Plug-In . SVG Version: 6.00 Build 0)  -->
<svg version="1.1" id="Ebene_1" xmlns="http://www.w3.org/2000/svg" xmlns:xlink="http://www.w3.org/1999/xlink" x="0px" y="0px"
	 viewBox="0 0 500 500" style="enable-background:new 0 0 500 500;" xml:space="preserve">
<style type="text/css">
	.st0{fill:#4E4AED;}
</style>
<g>
	<g>
		<g id="_x3C_Radiale_Wiederholung_x3E__00000169531349954675508420000002908637657173619593_">
			<path class="st0" d="M254.71,499.91c0,0-3.44-5.37-3.87-37.35c-0.48-35.74,27.7-75.27,26.99-128.26
				c-0.91-67.87-26.66-97.37-26.66-97.37l-26.74,47.42c0,0,12.35,22.25,12.82,57.24c0.47,34.98-4.35,47.62-3.93,78.99
				S241.39,484.4,254.71,499.91z"/>
		</g>
		<g id="_x3C_Radiale_Wiederholung_x3E__00000095322072233794610420000004687552254236210593_">
			<path class="st0" d="M129.14,468.62c0,0-0.3-6.37,15.32-34.28c17.45-31.19,61.63-51.33,87.51-97.58
				c33.15-59.24,25.6-97.66,25.6-97.66l-46.87,27.69c0,0-0.43,25.45-17.51,55.98s-27.58,39.07-42.9,66.44
				S125.36,448.54,129.14,468.62z"/>
		</g>
		<g id="_x3C_Radiale_Wiederholung_x3E__00000150802828584865138250000001391292771604288684_">
			<path class="st0" d="M36.04,378.75c0,0,2.93-5.67,30.41-22.03c30.71-18.29,79.04-13.64,124.57-40.76
				c58.32-34.73,71-71.78,71-71.78l-54.43,0.55c0,0-13.09,21.82-43.16,39.73c-30.06,17.9-43.42,20.04-70.37,36.09
				S42.81,359.46,36.04,378.75z"/>
		</g>
		<g id="_x3C_Radiale_Wiederholung_x3E__00000166663908289111026710000006962708686868411284_">
			<path class="st0" d="M0.35,254.36c0,0,5.37-3.44,37.35-3.87c35.74-0.48,75.27,27.7,128.26,26.99
				c67.87-0.91,97.37-26.66,97.37-26.66l-47.42-26.74c0,0-22.25,12.35-57.24,12.82c-34.98,0.47-47.62-4.35-78.99-3.93
				S15.86,241.04,0.35,254.36z"/>
		</g>
		<g id="_x3C_Radiale_Wiederholung_x3E__00000080204727050399198210000002717025558416181377_">
			<path class="st0" d="M31.63,128.79c0,0,6.37-0.3,34.28,15.32c31.19,17.45,51.33,61.63,97.58,87.51
				c59.24,33.15,97.66,25.6,97.66,25.6l-27.69-46.87c0,0-25.45-0.43-55.98-17.51s-39.07-27.58-66.44-42.9S51.72,125.01,31.63,128.79
				z"/>
		</g>
		<g id="_x3C_Radiale_Wiederholung_x3E__00000111897601651591025610000014902987717202111119_">
			<path class="st0" d="M121.51,35.69c0,0,5.67,2.93,22.03,30.41c18.29,30.71,13.64,79.04,40.76,124.57
				c34.73,58.32,71.78,71,71.78,71l-0.55-54.43c0,0-21.82-13.09-39.72-43.16s-20.04-43.42-36.09-70.37S140.79,42.46,121.51,35.69z"
				/>
		</g>
		<g id="_x3C_Radiale_Wiederholung_x3E__00000177442666569478004750000009068559390045710252_">
			<path class="st0" d="M245.89,0c0,0,3.44,5.37,3.87,37.35c0.48,35.74-27.7,75.27-26.99,128.26c0.91,67.87,26.66,97.37,26.66,97.37
				l26.74-47.42c0,0-12.35-22.25-12.82-57.24s4.35-47.62,3.93-78.99C266.86,47.98,259.21,15.51,245.89,0z"/>
		</g>
		<g id="_x3C_Radiale_Wiederholung_x3E__00000150822505146029033580000011029094994725830042_">
			<path class="st0" d="M371.46,31.28c0,0,0.3,6.37-15.32,34.28c-17.45,31.19-61.63,51.33-87.51,97.58
				c-33.15,59.24-25.6,97.66-25.6,97.66l46.87-27.69c0,0,0.43-25.45,17.51-55.98s27.58-39.07,42.9-66.44S375.24,51.37,371.46,31.28z
				"/>
		</g>
		<g id="_x3C_Radiale_Wiederholung_x3E__00000015312313266742032730000000638094883471332529_">
			<path class="st0" d="M464.56,121.16c0,0-2.93,5.67-30.41,22.03c-30.71,18.29-79.04,13.64-124.57,40.76
				c-58.32,34.73-71,71.78-71,71.78l54.43-0.55c0,0,13.09-21.82,43.16-39.72s43.42-20.04,70.37-36.09
				C433.49,163.3,457.79,140.45,464.56,121.16z"/>
		</g>
		<g id="_x3C_Radiale_Wiederholung_x3E__00000120557718019706014710000002573336178480133566_">
			<path class="st0" d="M500.26,245.55c0,0-5.37,3.44-37.35,3.87c-35.74,0.48-75.27-27.7-128.26-26.99
				c-67.87,0.91-97.37,26.66-97.37,26.66l47.42,26.74c0,0,22.25-12.35,57.24-12.82c34.98-0.47,47.62,4.35,78.99,3.93
				C452.27,266.51,484.75,258.86,500.26,245.55z"/>
		</g>
		<g id="_x3C_Radiale_Wiederholung_x3E__00000041973945498222458780000016959681995816193673_">
			<path class="st0" d="M468.97,371.11c0,0-6.37,0.3-34.28-15.32c-31.19-17.45-51.33-61.63-97.58-87.51
				c-59.24-33.15-97.66-25.6-97.66-25.6l27.69,46.87c0,0,25.45,0.43,55.98,17.51s39.07,27.58,66.44,42.9
				S448.89,374.89,468.97,371.11z"/>
		</g>
		<g id="_x3C_Radiale_Wiederholung_x3E__00000006692032005999940900000014273335853227768224_">
			<path class="st0" d="M379.1,464.22c0,0-5.67-2.93-22.03-30.41c-18.29-30.71-13.64-79.04-40.76-124.57
				c-34.73-58.32-71.78-71-71.78-71l0.55,54.43c0,0,21.82,13.09,39.73,43.16c17.9,30.06,20.04,43.42,36.09,70.37
				C336.95,433.14,359.81,457.45,379.1,464.22z"/>
		</g>
	</g>
</g>
</svg>
