<?xml version="1.0" encoding="utf-8"?>
<!-- Generator: Adobe Illustrator 26.3.1, SVG Export Plug-In . SVG Version: 6.00 Build 0)  -->
<svg version="1.1" id="Ebene_1" xmlns="http://www.w3.org/2000/svg" xmlns:xlink="http://www.w3.org/1999/xlink" x="0px" y="0px"
	 viewBox="0 0 500 500" style="enable-background:new 0 0 500 500;" xml:space="preserve">
<style type="text/css">
	.st0{fill:#4E4AED;}
</style>
<g>
	<g>
		<g id="_x3C_Radiale_Wiederholung_x3E__00000168091644415163370420000012618653031928198803_">
			<polygon class="st0" points="96.86,266.47 250.3,232.67 403.74,266.47 250.3,499.91 			"/>
		</g>
		<g id="_x3C_Radiale_Wiederholung_x3E__00000016062279935620427950000014742193714304873115_">
			<polygon class="st0" points="102.22,206.5 256.92,233.99 385.74,323.93 154.65,480.88 			"/>
		</g>
		<g id="_x3C_Radiale_Wiederholung_x3E__00000083089761489099054630000002289835679444366259_">
			<polygon class="st0" points="130.13,153.14 262.52,237.73 347.12,370.13 73.56,426.7 			"/>
		</g>
		<g id="_x3C_Radiale_Wiederholung_x3E__00000027577009967909621110000017024660117342600343_">
			<polygon class="st0" points="176.32,114.52 266.27,243.34 293.76,398.03 19.38,345.61 			"/>
		</g>
		<g id="_x3C_Radiale_Wiederholung_x3E__00000039841849416350924450000001357230017041174663_">
			<polygon class="st0" points="233.78,96.52 267.59,249.95 233.78,403.39 0.35,249.95 			"/>
		</g>
		<g id="_x3C_Radiale_Wiederholung_x3E__00000084526569060341639830000000471874654680439950_">
			<polygon class="st0" points="293.76,101.87 266.27,256.57 176.32,385.39 19.38,154.3 			"/>
		</g>
		<g id="_x3C_Radiale_Wiederholung_x3E__00000047740512966205792730000009706337517383560583_">
			<polygon class="st0" points="347.12,129.78 262.52,262.18 130.13,346.77 73.56,73.21 			"/>
		</g>
		<g id="_x3C_Radiale_Wiederholung_x3E__00000117667669829811157780000002229994304671126953_">
			<polygon class="st0" points="385.74,175.97 256.92,265.92 102.22,293.41 154.65,19.03 			"/>
		</g>
		<g id="_x3C_Radiale_Wiederholung_x3E__00000108997086972626677800000012281520258139813774_">
			<polygon class="st0" points="403.74,233.44 250.3,267.24 96.86,233.44 250.3,0 			"/>
		</g>
		<g id="_x3C_Radiale_Wiederholung_x3E__00000094601810064679784360000006795732064746213765_">
			<polygon class="st0" points="398.38,293.41 243.69,265.92 114.86,175.97 345.95,19.03 			"/>
		</g>
		<g id="_x3C_Radiale_Wiederholung_x3E__00000098220917850586800820000007243528159922421688_">
			<polygon class="st0" points="370.48,346.77 238.08,262.17 153.48,129.78 427.05,73.21 			"/>
		</g>
		<g id="_x3C_Radiale_Wiederholung_x3E__00000004537018977782524540000005278180988420300684_">
			<polygon class="st0" points="324.28,385.39 234.33,256.57 206.84,101.87 481.23,154.3 			"/>
		</g>
		<g id="_x3C_Radiale_Wiederholung_x3E__00000104686282411142552410000018097220733125755780_">
			<polygon class="st0" points="266.82,403.39 233.02,249.95 266.82,96.52 500.26,249.95 			"/>
		</g>
		<g id="_x3C_Radiale_Wiederholung_x3E__00000145739899181138698130000012045823425822062263_">
			<polygon class="st0" points="206.84,398.03 234.33,243.34 324.28,114.52 481.23,345.61 			"/>
		</g>
		<g id="_x3C_Radiale_Wiederholung_x3E__00000109007435167935029370000009263004736423528895_">
			<polygon class="st0" points="153.49,370.13 238.08,237.73 370.48,153.14 427.05,426.7 			"/>
		</g>
		<g id="_x3C_Radiale_Wiederholung_x3E__00000049900462938374821170000013711998026384588429_">
			<polygon class="st0" points="114.87,323.93 243.69,233.99 398.38,206.5 345.96,480.88 			"/>
		</g>
	</g>
</g>
</svg>
