<?xml version="1.0" encoding="utf-8"?>
<!-- Generator: Adobe Illustrator 26.3.1, SVG Export Plug-In . SVG Version: 6.00 Build 0)  -->
<svg version="1.1" id="Ebene_1" xmlns="http://www.w3.org/2000/svg" xmlns:xlink="http://www.w3.org/1999/xlink" x="0px" y="0px"
	 viewBox="0 0 500 500" style="enable-background:new 0 0 500 500;" xml:space="preserve">
<style type="text/css">
	.st0{fill:#4E4AED;}
</style>
<g>
	<g>
		<g>
			<path class="st0" d="M255.18,499.91c0,0-5.08-3.09-5.33-21.75c-0.28-20.85,42.35-44.27,41.93-75.18
				c-0.53-39.6-38.66-56.5-38.66-56.5l-40.56,28c0,0,18.2,12.83,18.47,33.25c0.27,20.41-7.09,27.85-6.84,46.14
				C224.43,472.16,235.46,491.02,255.18,499.91z"/>
		</g>
		<g>
			<path class="st0" d="M129.55,468.86c0,0-2.85-5.22,6.26-21.5c10.18-18.2,58.81-17.16,73.9-44.15
				c19.34-34.56-5.23-68.26-5.23-68.26l-49.13,3.97c0,0,9.34,20.21-0.63,38.03c-9.97,17.81-20.06,20.57-29,36.54
				S116.92,451.31,129.55,468.86z"/>
		</g>
		<g>
			<path class="st0" d="M36.28,379.16c0,0,0.14-5.94,16.17-15.49c17.92-10.67,59.51,14.54,86.08-1.28
				c34.03-20.26,29.6-61.73,29.6-61.73l-44.53-21.13c0,0-2.02,22.18-19.56,32.62s-27.66,7.78-43.38,17.15S34.11,357.64,36.28,379.16
				z"/>
		</g>
		<g>
			<path class="st0" d="M0.35,254.84c0,0,3.09-5.08,21.75-5.33c20.85-0.28,44.27,42.35,75.18,41.93c39.6-0.53,56.5-38.66,56.5-38.66
				l-28-40.56c0,0-12.83,18.2-33.25,18.47c-20.41,0.27-27.85-7.09-46.14-6.84C28.09,224.08,9.23,235.12,0.35,254.84z"/>
		</g>
		<g>
			<path class="st0" d="M31.4,129.21c0,0,5.22-2.85,21.5,6.26c18.2,10.18,17.16,58.81,44.15,73.9c34.56,19.34,68.26-5.23,68.26-5.23
				l-3.97-49.13c0,0-20.21,9.34-38.03-0.63s-20.57-20.06-36.54-29S48.95,116.57,31.4,129.21z"/>
		</g>
		<g>
			<path class="st0" d="M121.1,35.93c0,0,5.94,0.14,15.49,16.17c10.67,17.92-14.54,59.51,1.28,86.08
				c20.26,34.03,61.73,29.6,61.73,29.6l21.13-44.53c0,0-22.18-2.02-32.62-19.56c-10.44-17.54-7.78-27.66-17.15-43.38
				S142.62,33.76,121.1,35.93z"/>
		</g>
		<g>
			<path class="st0" d="M245.42,0c0,0,5.08,3.09,5.33,21.75c0.28,20.85-42.35,44.27-41.93,75.18c0.53,39.6,38.66,56.5,38.66,56.5
				l40.56-28c0,0-18.2-12.83-18.47-33.25c-0.27-20.41,7.09-27.85,6.84-46.14C276.17,27.74,265.14,8.89,245.42,0z"/>
		</g>
		<g>
			<path class="st0" d="M371.05,31.05c0,0,2.85,5.22-6.26,21.5c-10.18,18.2-58.81,17.16-73.9,44.15
				c-19.34,34.56,5.23,68.26,5.23,68.26l49.13-3.97c0,0-9.34-20.21,0.63-38.03c9.97-17.81,20.06-20.57,29-36.54
				C383.81,70.45,383.69,48.6,371.05,31.05z"/>
		</g>
		<g>
			<path class="st0" d="M464.33,120.75c0,0-0.14,5.94-16.17,15.49c-17.92,10.67-59.51-14.54-86.08,1.28
				c-34.03,20.26-29.6,61.73-29.6,61.73l44.53,21.13c0,0,2.02-22.18,19.56-32.62c17.54-10.44,27.66-7.78,43.38-17.15
				S466.49,142.27,464.33,120.75z"/>
		</g>
		<g>
			<path class="st0" d="M500.26,245.07c0,0-3.09,5.08-21.75,5.33c-20.85,0.28-44.27-42.35-75.18-41.93
				c-39.6,0.53-56.5,38.66-56.5,38.66l28,40.56c0,0,12.83-18.2,33.25-18.47c20.41-0.27,27.85,7.09,46.14,6.84
				C472.51,275.82,491.37,264.79,500.26,245.07z"/>
		</g>
		<g>
			<path class="st0" d="M469.21,370.7c0,0-5.22,2.85-21.5-6.26c-18.2-10.18-17.16-58.81-44.15-73.9
				c-34.56-19.34-68.26,5.23-68.26,5.23l3.97,49.13c0,0,20.21-9.34,38.03,0.63c17.81,9.97,20.57,20.06,36.54,29
				C429.81,383.46,451.65,383.34,469.21,370.7z"/>
		</g>
		<g>
			<path class="st0" d="M379.51,463.98c0,0-5.94-0.14-15.49-16.17c-10.67-17.92,14.54-59.51-1.28-86.08
				c-20.26-34.03-61.73-29.6-61.73-29.6l-21.13,44.53c0,0,22.18,2.02,32.62,19.56s7.78,27.66,17.15,43.38
				S357.99,466.14,379.51,463.98z"/>
		</g>
	</g>
	<circle class="st0" cx="250.3" cy="249.95" r="130.19"/>
</g>
</svg>
